#!OML:ASF E:\motion texture\Top Level 1\Subject 1\Session 1\male.ASF
:FULLY-SPECIFIED
:DEGREES
203
root 27.8049 17.3552 7.26474 169.462 -84.7903 -162.046
lowerback 1.98029 -2.40057 3.03517
upperback -0.195957 -3.18011 4.79656
thorax -1.20131 -1.64287 3.33083
lowerneck -23.0829 -0.973425 -0.315073
upperneck 3.42332 -2.48909 9.23526
head 4.82683 -0.692767 2.72685
rclavicle 1.5704e-014 -1.90833e-014
rhumerus 36.9177 -51.0254 -14.9235
rradius 44.8695
rwrist 3.32662
rhand -24.8127 -37.7187
rfingers 7.12502
rthumb 1.6925 -67.6917
lclavicle 1.5704e-014 -1.90833e-014
lhumerus -38.7325 -3.26234 91.1031
lradius 34.541
lwrist -21.093
lhand -13.0296 19.7178
lfingers 7.12502
lthumb 13.0646 49.2886
rfemur -36.7688 1.16506 17.8176
rtibia 27.702
rfoot -0.279289 -5.97505
rtoes 10.9098
lfemur 0.322508 -3.64739 -20.8245
ltibia 25.2679
lfoot -17.1181 2.73424
ltoes -12.9387
204
root 27.6598 17.367 7.23428 167.017 -84.7678 -159.573
lowerback 1.95618 -2.34821 3.16119
upperback -0.202374 -3.11169 4.87218
thorax -1.19917 -1.61103 3.336
lowerneck -23.1479 -0.912366 -0.328916
upperneck 3.4551 -2.38744 9.07947
head 4.83732 -0.650141 2.69072
rclavicle 2.68359e-014 -1.59028e-015
rhumerus 34.3439 -50.2945 -13.3983
rradius 46.663
rwrist 2.05463
rhand -24.927 -37.9766
rfingers 7.12502
rthumb 1.58207 -67.9505
lclavicle 2.68359e-014 -1.59028e-015
lhumerus -38.8492 -3.26541 91.2382
lradius 34.5329
lwrist -21.1399
lhand -12.7938 19.637
lfingers 7.12502
lthumb 13.292 49.1932
rfemur -36.4755 1.18869 18.2049
rtibia 28.0148
rfoot -0.363507 -5.73971
rtoes 11.417
lfemur 0.036361 -3.51473 -20.4172
ltibia 26.3562
lfoot -16.5622 2.47866
ltoes -13.6104
205
root 27.5142 17.3807 7.20264 164.467 -84.7369 -156.998
lowerback 1.9307 -2.29098 3.28653
upperback -0.213566 -3.03661 4.94488
thorax -1.2014 -1.57586 3.33847
lowerneck -23.201 -0.85911 -0.357089
upperneck 3.49289 -2.29215 8.92972
head 4.84873 -0.610356 2.65812
rclavicle -2.5842e-015 3.81667e-014
rhumerus 31.6526 -49.4035 -11.8666
rradius 48.6077
rwrist 0.78261
rhand -25.0151 -38.2073
rfingers 7.12502
rthumb 1.49694 -68.1818
lclavicle -2.5842e-015 3.81667e-014
lhumerus -38.9619 -3.25828 91.3655
lradius 34.5316
lwrist -21.1899
lhand -12.5454 19.5501
lfingers 7.12502
lthumb 13.5314 49.0904
rfemur -36.1311 1.2203 18.6037
rtibia 28.2736
rfoot -0.461244 -5.53657
rtoes 11.9191
lfemur -0.302865 -3.3669 -19.9824
ltibia 27.504
lfoot -15.9504 2.20975
ltoes -14.2243
206
root 27.3682 17.396 7.16989 161.845 -84.6973 -154.356
lowerback 1.88923 -2.22976 3.413
upperback -0.218871 -2.95756 5.01041
thorax -1.18904 -1.53857 3.33183
lowerneck -23.2464 -0.811701 -0.395878
upperneck 3.52873 -2.20184 8.78773
head 4.85907 -0.572927 2.62911
rclavicle -1.74931e-014 4.29375e-014
rhumerus 28.9059 -48.3796 -10.4023
rradius 50.6945
rwrist -0.460369
rhand -25.0795 -38.4064
rfingers 7.12502
rthumb 1.43479 -68.3814
lclavicle -1.74931e-014 4.29375e-014
lhumerus -39.0533 -3.24248 91.4772
lradius 34.5371
lwrist -21.2412
lhand -12.2866 19.4608
lfingers 7.12502
lthumb 13.7808 48.9844
rfemur -35.7335 1.2619 19.0099
rtibia 28.4698
rfoot -0.570861 -5.36268
rtoes 12.4055
lfemur -0.694583 -3.20342 -19.5233
ltibia 28.7069
lfoot -15.2843 1.92824
ltoes -14.7699
207
root 27.2217 17.413 7.13605 159.175 -84.649 -151.671
lowerback 1.83998 -2.16442 3.53807
upperback -0.223613 -2.87356 5.06905
thorax -1.172 -1.49868 3.3184
lowerneck -23.2835 -0.771011 -0.44518
upperneck 3.56797 -2.11773 8.65238
head 4.86993 -0.538255 2.60323
rclavicle -2.14687e-014 -2.38542e-014
rhumerus 26.142 -47.2298 -9.04895
rradius 52.9149
rwrist -1.64612
rhand -25.1312 -38.5739
rfingers 7.12502
rthumb 1.38484 -68.5492
lclavicle -2.14687e-014 -2.38542e-014
lhumerus -39.1311 -3.21741 91.5738
lradius 34.5522
lwrist -21.2937
lhand -12.019 19.3672
lfingers 7.12502
lthumb 14.0387 48.8731
rfemur -35.2816 1.31385 19.4211
rtibia 28.596
rfoot -0.694558 -5.2167
rtoes 12.8787
lfemur -1.13951 -3.02482 -19.0425
ltibia 29.9617
lfoot -14.5699 1.63842
ltoes -15.2521
